<svg xmlns="http://www.w3.org/2000/svg" xmlns:xlink="http://www.w3.org/1999/xlink" viewBox="0 0 3565.57 1165.65"><defs>
  <style>.a{fill:none;}.b{fill:#423730;}.c{fill:#5441f8;}.d,.q{fill:#5c546a;}.e{fill:#fff;}.f{clip-path:url(#a);}.g,.p{fill:#dddcf1;}.h{fill:#6c657c;}.i{clip-path:url(#b);}.j{fill:#c2c2d3;}.k{clip-path:url(#c);}.l{clip-path:url(#d);}.m{clip-path:url(#e);}.n{fill:#e3faff;}.o{fill:#686177;opacity:0.8;}.p{opacity:0.5;}.q{opacity:0.7;}</style><clipPath id="a" transform="translate(965.53 517)"><path class="a" d="M1947.49,298.52l73.5-39a2.25,2.25,0,0,1,2.7.45l2.84,3.05a2.25,2.25,0,0,1,.33,2.61h0a2.25,2.25,0,0,0,.23,2.5l6.21,7.62a2.25,2.25,0,0,0,1.49.81l6.07.67a2.25,2.25,0,0,1,1.47.78l3.24,3.81a2.25,2.25,0,0,1-.66,3.44l-80,42.33a2.25,2.25,0,0,1-3-.82l-15.29-25.15A2.25,2.25,0,0,1,1947.49,298.52Z"/></clipPath><clipPath id="b" transform="translate(965.53 517)"><path class="a" d="M1419.5-130.54c7.57,4.51,5.87,23-4.8,40.87s-25.46,28.74-33,24.23-5.05-22.68,5.62-40.58S1411.93-135.05,1419.5-130.54Z"/></clipPath><clipPath id="c" transform="translate(965.53 517)"><path class="a" d="M1304.07-162.3c-31-16.76,7.77-19.75-42.42-34.25-21.27-6.15-36.18-26.5-32.14-31.37,0,0-1.11-20.85,47.63.17,46.71,20.15,16.33-27.45,16-31.74,0-.24,0-.47,0-.7,0-4.14,1.36-38.18,37-33.85,38,4.61,52.36,23,52.36,23s37.73,32.71,1.74,50.35c-9.86,4.83-26.76-5.07-37.41,1.69-11,7-13.6,19.28-.29,31.1,8.52,7.56,24.86,22,20.48,30.06-10.54,19.46,22.06,37.5,32.82,45.51a41.4,41.4,0,0,0,13,6.42c9.38,2.76,15.68,11.53,12.49,17.28a32.6,32.6,0,0,1-4.38,6.1c-5.28,5.82-19.48,1.49-24-7.3l-.16-.31c-4.6-9.18-23.17-12.9-27.56-13.66a19.45,19.45,0,0,1-2.76-.69c-5.62-1.85-19.45-4.68-31.36-26.79-11.7-21.73,3.62-12.31-30.2-30.62"/></clipPath><clipPath id="d" transform="translate(965.53 517)"><path class="b" d="M1220.3-232.26s48.65,1.07,75.63,22.21,41.91,45.56,46.64,62.36,24,29.43,34.1,32,29.88,16.27,31.27,19.81.39,18.86.39,18.86-30.14,15.4-41.59,10.51-64.44-48.13-64.44-48.13l-34.87-63.88-50.49-24.68Z"/></clipPath><clipPath id="e" transform="translate(965.53 517)"><path class="a" d="M1435.8-136.07l-6.62,9.76a1.27,1.27,0,0,1-1.45.17l-8.77-4.69C1413-88.07,1380.88-66,1380.88-66c15.14,12.15,45.3,23.88,51.44,26.21a12.77,12.77,0,0,0,2.24.62l.09,0a35.93,35.93,0,0,0,17.54-5.66c21.53-14,22.63-36.39,21.83-46.74a12.66,12.66,0,0,0-4.54-8.72l-1.15-1a1.65,1.65,0,0,1-.56-1.59l2.49-12.45a4.71,4.71,0,0,0-2.15-4.93L1444-135C1442.21-136.13,1437.36-137.46,1435.8-136.07Zm27.83,22.31-2.51,7.49L1435.41-122l3.1-5.71a1.79,1.79,0,0,1,2.46-.7l21.84,12.51A1.79,1.79,0,0,1,1463.63-113.77Z"/></clipPath></defs><title>elements</title><path class="c" d="M-963-517c-.67.76-.44,2.64-2,2.13-1-.33-.16-1.4,0-2.13Z" transform="translate(965.53 517)"/><path class="d" d="M2020.31,256.88l-74.68,39.19a5.29,5.29,0,0,0-2.81,4.26l-.13,1.65a5.29,5.29,0,0,0,.66,3l15.27,27.16a5.29,5.29,0,0,0,3.84,2.64l1.4.21a5.29,5.29,0,0,0,3.21-.54L2050.51,291a5.29,5.29,0,0,0,2.78-3.87h0a5.29,5.29,0,0,0-1.53-4.6l-25.3-24.74A5.29,5.29,0,0,0,2020.31,256.88Z" transform="translate(965.53 517)"/><path class="e" d="M1947.49,298.52l73.5-39a2.25,2.25,0,0,1,2.7.45l2.84,3.05a2.25,2.25,0,0,1,.33,2.61h0a2.25,2.25,0,0,0,.23,2.5l6.21,7.62a2.25,2.25,0,0,0,1.49.81l6.07.67a2.25,2.25,0,0,1,1.47.78l3.24,3.81a2.25,2.25,0,0,1-.66,3.44l-80,42.33a2.25,2.25,0,0,1-3-.82l-15.29-25.15A2.25,2.25,0,0,1,1947.49,298.52Z" transform="translate(965.53 517)"/><g class="f"><path class="g" d="M2039.75,276.07c-1.95-.3-4.88-.74-6.15.77-1.92,2.27-5,6.42-12.37,6.5-11.87.13-27.27,5-34.71,17-4.56,7.35-17.88,8.78-27.52,8.79a5.66,5.66,0,0,0-4.76,8.72l6,9.34a5.66,5.66,0,0,0,1.91,1.83h0a1.82,1.82,0,0,0,1.07.24l.49,0a1.82,1.82,0,0,0,.7-.21l79.13-42,4.16-2.33a1.82,1.82,0,0,0,.48-.39h0a1.82,1.82,0,0,0,.34-1.82l-.12-.33a1.82,1.82,0,0,0-.08-.19l-.42-.84a5.66,5.66,0,0,0-.78-1.17l-1.11-1.28a5.66,5.66,0,0,0-2.68-1.73l-1.78-.52a5.66,5.66,0,0,0-.74-.17Z" transform="translate(965.53 517)"/></g><path class="g" d="M1419.5-130.54c7.57,4.51,5.87,23-4.8,40.87s-25.46,28.74-33,24.23-5.05-22.68,5.62-40.58S1411.93-135.05,1419.5-130.54Z" transform="translate(965.53 517)"/><path class="h" d="M1304.07-162.3c-31-16.76,7.77-19.75-42.42-34.25-21.27-6.15-36.18-26.5-32.14-31.37,0,0-1.11-20.85,47.63.17,46.71,20.15,16.33-27.45,16-31.74,0-.24,0-.47,0-.7,0-4.14,1.36-38.18,37-33.85,38,4.61,52.36,23,52.36,23s37.73,32.71,1.74,50.35c-9.86,4.83-26.76-5.07-37.41,1.69-11,7-13.6,19.28-.29,31.1,8.52,7.56,24.86,22,20.48,30.06-10.54,19.46,22.06,37.5,32.82,45.51a41.4,41.4,0,0,0,13,6.42c9.38,2.76,15.68,11.53,12.49,17.28a32.6,32.6,0,0,1-4.38,6.1c-5.28,5.82-19.48,1.49-24-7.3l-.16-.31c-4.6-9.18-23.17-12.9-27.56-13.66a19.45,19.45,0,0,1-2.76-.69c-5.62-1.85-19.45-4.68-31.36-26.79-11.7-21.73,3.62-12.31-30.2-30.62" transform="translate(965.53 517)"/><g class="i"><path class="j" d="M1371.21-103.45S1455.89-84.38,1475.53-50s-82.89,9.65-82.89,9.65l-31.82-36.44Z" transform="translate(965.53 517)"/></g><g class="k"><path class="b" d="M1220.3-232.26s48.65,1.07,75.63,22.21,41.91,45.56,46.64,62.36,24,29.43,34.1,32,29.88,16.27,31.27,19.81.39,18.86.39,18.86-30.14,15.4-41.59,10.51-64.44-48.13-64.44-48.13l-34.87-63.88-50.49-24.68Z" transform="translate(965.53 517)"/><g class="l"><path class="d" d="M1304.07-162.3c-31-16.76,7.77-19.75-42.42-34.25-21.27-6.15-36.18-26.5-32.14-31.37,0,0-1.11-20.85,47.63.17,46.71,20.15,16.33-27.45,16-31.74,0-.24,0-.47,0-.7,0-4.14,1.36-38.18,37-33.85,38,4.61,52.36,23,52.36,23s37.73,32.71,1.74,50.35c-9.86,4.83-26.76-5.07-37.41,1.69-11,7-13.6,19.28-.29,31.1,8.52,7.56,24.86,22,20.48,30.06-10.54,19.46,22.06,37.5,32.82,45.51a41.4,41.4,0,0,0,13,6.42c9.38,2.76,15.68,11.53,12.49,17.28a32.6,32.6,0,0,1-4.38,6.1c-5.28,5.82-19.48,1.49-24-7.3l-.16-.31c-4.6-9.18-23.17-12.9-27.56-13.66a19.45,19.45,0,0,1-2.76-.69c-5.62-1.85-19.45-4.68-31.36-26.79-11.7-21.73,3.62-12.31-30.2-30.62" transform="translate(965.53 517)"/></g></g><path class="e" d="M1435.8-136.07l-6.62,9.76a1.27,1.27,0,0,1-1.45.17l-8.77-4.69C1413-88.07,1380.88-66,1380.88-66c15.14,12.15,45.3,23.88,51.44,26.21a12.77,12.77,0,0,0,2.24.62l.09,0a35.93,35.93,0,0,0,17.54-5.66c21.53-14,22.63-36.39,21.83-46.74a12.66,12.66,0,0,0-4.54-8.72l-1.15-1a1.65,1.65,0,0,1-.56-1.59l2.49-12.45a4.71,4.71,0,0,0-2.15-4.93L1444-135C1442.21-136.13,1437.36-137.46,1435.8-136.07Zm27.83,22.31-2.51,7.49L1435.41-122l3.1-5.71a1.79,1.79,0,0,1,2.46-.7l21.84,12.51A1.79,1.79,0,0,1,1463.63-113.77Z" transform="translate(965.53 517)"/><g class="m"><path class="g" d="M1371.21-103.45S1455.89-84.38,1475.53-50s-82.89,9.65-82.89,9.65l-31.82-36.44Z" transform="translate(965.53 517)"/></g><path class="g" d="M1703.83,125.46c9.72-4.64,52.84-26,68.66-47.54a.72.72,0,0,1,1.28.6c-2.43,9-11.16,32.3-39.42,52a.73.73,0,0,1-.34.13c-1.2.12-8.19.51-30-3.82A.72.72,0,0,1,1703.83,125.46Z" transform="translate(965.53 517)"/><path class="e" d="M1711.77,5.67c11,5.95,80.23,45.47,59.31,91.16a19.94,19.94,0,0,1-2.21,3.7c-3.52,4.67-14.44,17.77-34.11,29.73a.37.37,0,0,1-.56-.31c0-5.15-2.33-39.9-53.36-71.9a.36.36,0,0,1,0-.62c5.12-3,46.67-28.63,30.48-51.23A.36.36,0,0,1,1711.77,5.67Z" transform="translate(965.53 517)"/><path class="g" d="M1705.18,62.8c3.09-2.85,6.14-5.35,9.12-7.83s5.82-5,8.46-7.54a55.43,55.43,0,0,0,7.11-8.22c.51-.74,1-1.52,1.43-2.31a25.65,25.65,0,0,0,1.28-2.47,45.77,45.77,0,0,0,2.06-5.56l.4,0a24.63,24.63,0,0,1-.35,6,25.6,25.6,0,0,1-2,5.73,35.31,35.31,0,0,1-7.17,9.69,59.12,59.12,0,0,1-9.53,7.36,65.9,65.9,0,0,1-10.69,5.52Z" transform="translate(965.53 517)"/><path class="g" d="M1715.14,71.3c3.09-2.85,6.14-5.35,9.12-7.83s5.82-5,8.46-7.54a55.44,55.44,0,0,0,7.11-8.22c.51-.74,1-1.52,1.43-2.31a25.65,25.65,0,0,0,1.29-2.47,45.77,45.77,0,0,0,2.06-5.56l.4,0a24.63,24.63,0,0,1-.35,6,25.61,25.61,0,0,1-2,5.73,35.31,35.31,0,0,1-7.17,9.69,59.13,59.13,0,0,1-9.53,7.36,65.91,65.91,0,0,1-10.69,5.52Z" transform="translate(965.53 517)"/><path class="g" d="M1725.09,82c3.09-2.85,6.14-5.35,9.12-7.83s5.82-5,8.46-7.54a55.43,55.43,0,0,0,7.11-8.22c.51-.74,1-1.52,1.43-2.31a25.68,25.68,0,0,0,1.29-2.47,45.79,45.79,0,0,0,2.06-5.56l.4,0a24.63,24.63,0,0,1-.35,6,25.6,25.6,0,0,1-2,5.73,35.31,35.31,0,0,1-7.17,9.69,59.13,59.13,0,0,1-9.53,7.36,65.91,65.91,0,0,1-10.69,5.52Z" transform="translate(965.53 517)"/><path class="g" d="M1735.77,95.73c3.09-2.85,6.14-5.35,9.12-7.83s5.82-5,8.46-7.54a55.44,55.44,0,0,0,7.11-8.22c.51-.74,1-1.52,1.43-2.31a25.65,25.65,0,0,0,1.28-2.47,45.77,45.77,0,0,0,2.06-5.56l.4,0a24.63,24.63,0,0,1-.35,6,25.61,25.61,0,0,1-2,5.73,35.31,35.31,0,0,1-7.17,9.69,59.12,59.12,0,0,1-9.53,7.36,65.9,65.9,0,0,1-10.69,5.52Z" transform="translate(965.53 517)"/><path class="g" d="M1628.34,94c2.3,4.81,12.88,26.14,23.52,34a.36.36,0,0,1-.3.63c-4.44-1.2-16-5.52-25.72-19.5a.36.36,0,0,1-.06-.17c-.06-.59-.25-4.05,1.89-14.84A.36.36,0,0,1,1628.34,94Z" transform="translate(965.53 517)"/><path class="e" d="M1687.61,98c-2.94,5.46-22.5,39.69-45.1,29.34a9.86,9.86,0,0,1-1.83-1.09A61.38,61.38,0,0,1,1626,109.33a.18.18,0,0,1,.15-.28c2.55,0,19.74-1.15,35.57-26.4a.18.18,0,0,1,.31,0c1.5,2.53,14.16,23.09,25.35,15.08A.18.18,0,0,1,1687.61,98Z" transform="translate(965.53 517)"/><path class="g" d="M1659.34,94.7c1.42,1.53,2.66,3,3.89,4.5.64.71,1.21,1.47,1.85,2.15s1.22,1.4,1.88,2a20.47,20.47,0,0,0,2,1.87,20.69,20.69,0,0,0,2.1,1.65,18,18,0,0,0,2.36,1.35,22.75,22.75,0,0,0,2.75,1v.2a12.17,12.17,0,0,1-3-.2,12.72,12.72,0,0,1-2.83-1,17.46,17.46,0,0,1-4.8-3.53,29.22,29.22,0,0,1-3.63-4.73,36,36,0,0,1-2.74-5.28Z" transform="translate(965.53 517)"/><path class="g" d="M1655.14,99.62c1.42,1.53,2.66,3,3.89,4.5.64.71,1.21,1.47,1.85,2.15s1.22,1.4,1.88,2a20.48,20.48,0,0,0,2,1.87,20.69,20.69,0,0,0,2.1,1.65,18,18,0,0,0,2.36,1.35,22.76,22.76,0,0,0,2.75,1v.2a12.17,12.17,0,0,1-3-.2,12.72,12.72,0,0,1-2.83-1,17.46,17.46,0,0,1-4.8-3.53,29.22,29.22,0,0,1-3.63-4.73,36,36,0,0,1-2.74-5.28Z" transform="translate(965.53 517)"/><path class="g" d="M1649.85,104.55c1.42,1.53,2.66,3,3.89,4.5.64.71,1.21,1.47,1.85,2.15s1.22,1.4,1.88,2a27.34,27.34,0,0,0,4.06,3.52,18,18,0,0,0,2.36,1.35,22.74,22.74,0,0,0,2.75,1v.2a12.18,12.18,0,0,1-3-.2,12.73,12.73,0,0,1-2.83-1,17.47,17.47,0,0,1-4.8-3.53,29.23,29.23,0,0,1-3.63-4.73,36.06,36.06,0,0,1-2.74-5.28Z" transform="translate(965.53 517)"/><path class="g" d="M1643,109.83c1.42,1.53,2.66,3,3.89,4.5.64.71,1.21,1.47,1.85,2.15s1.22,1.4,1.88,2a27.34,27.34,0,0,0,4.06,3.52,18,18,0,0,0,2.36,1.35,22.75,22.75,0,0,0,2.75,1v.2a12.18,12.18,0,0,1-3-.2,12.72,12.72,0,0,1-2.83-1,17.46,17.46,0,0,1-4.8-3.53,29.22,29.22,0,0,1-3.63-4.73,36.06,36.06,0,0,1-2.74-5.28Z" transform="translate(965.53 517)"/><path class="g" d="M2332.14-333.61c-4.17,8.73-23.39,47.48-42.72,61.7a.65.65,0,0,0,.54,1.15c8.06-2.18,29-10,46.71-35.42a.66.66,0,0,0,.12-.31c.11-1.07.46-7.36-3.43-27A.65.65,0,0,0,2332.14-333.61Z" transform="translate(965.53 517)"/><path class="e" d="M2224.49-326.47c5.35,9.92,40.86,72.09,81.92,53.3a17.91,17.91,0,0,0,3.33-2c4.2-3.17,16-13,26.72-30.65a.33.33,0,0,0-.28-.5c-4.62,0-35.85-2.09-64.61-48a.32.32,0,0,0-.56,0c-2.73,4.6-25.73,41.94-46,27.39A.32.32,0,0,0,2224.49-326.47Z" transform="translate(965.53 517)"/><path class="g" d="M2276.18-332.25a28.54,28.54,0,0,1-2.81,11,34.07,34.07,0,0,1-6.47,9.44,25.69,25.69,0,0,1-9.9,6.49,19.54,19.54,0,0,1-5.95,1,14.48,14.48,0,0,1-5.76-1.23l0-.4a21.66,21.66,0,0,0,5.28-.49,22.69,22.69,0,0,0,5-1.79,31,31,0,0,0,8.44-6.41,52.63,52.63,0,0,0,6.63-8.38q1.46-2.25,2.73-4.61c.87-1.56,1.69-3.16,2.4-4.79Z" transform="translate(965.53 517)"/><path class="g" d="M2283.82-323.31a28.54,28.54,0,0,1-2.81,11,34.07,34.07,0,0,1-6.47,9.44,25.69,25.69,0,0,1-9.9,6.49,19.55,19.55,0,0,1-5.95,1,14.48,14.48,0,0,1-5.76-1.23l0-.4a21.66,21.66,0,0,0,5.28-.49,22.7,22.7,0,0,0,5-1.79,31,31,0,0,0,8.44-6.41,52.61,52.61,0,0,0,6.63-8.38q1.46-2.25,2.73-4.61c.87-1.56,1.69-3.16,2.4-4.79Z" transform="translate(965.53 517)"/><path class="g" d="M2293.42-314.36a28.54,28.54,0,0,1-2.81,11,34.07,34.07,0,0,1-6.47,9.44,25.69,25.69,0,0,1-9.9,6.49,19.55,19.55,0,0,1-5.95,1,14.48,14.48,0,0,1-5.76-1.23l0-.4a21.66,21.66,0,0,0,5.28-.49,22.7,22.7,0,0,0,5-1.79,31,31,0,0,0,8.44-6.41,52.63,52.63,0,0,0,6.63-8.38q1.46-2.25,2.73-4.61c.87-1.56,1.69-3.16,2.4-4.79Z" transform="translate(965.53 517)"/><path class="g" d="M2305.78-304.77a28.54,28.54,0,0,1-2.81,11,34.07,34.07,0,0,1-6.47,9.44,25.69,25.69,0,0,1-9.9,6.49,19.55,19.55,0,0,1-5.95,1,14.48,14.48,0,0,1-5.76-1.23l0-.4a21.66,21.66,0,0,0,5.28-.49,22.7,22.7,0,0,0,5-1.79,31,31,0,0,0,8.44-6.41,52.63,52.63,0,0,0,6.63-8.38c1-1.5,1.88-3,2.73-4.61s1.69-3.16,2.4-4.79Z" transform="translate(965.53 517)"/><circle class="h" cx="2232.28" cy="233.25" r="3.92"/><circle class="h" cx="2176.28" cy="252.75" r="2.67"/><circle class="h" cx="2234.53" cy="263.75" r="6.54"/><circle class="h" cx="2210.28" cy="252" r="2.08"/><path class="n" d="M1765.41-343.83a8.73,8.73,0,0,0-11.73-3.87l-11.06,5.57a50.83,50.83,0,0,0-5-18.36c-.12-.23-.48-1.07-.57-1.25l-.18-.36c-4.05-7.47-7.55-8.63-11.09-8.23a6.2,6.2,0,0,0-2.75,8.33l.28.55c.93,1.91.23,7.17.23,7.17l-10,30.8-.13.59,2.14,19.65,19.09,22.53a1.58,1.58,0,0,0,2.12.7l38.28-19.27a5.9,5.9,0,0,0,3-7.1C1774.59-317,1766.54-341.58,1765.41-343.83Z" transform="translate(965.53 517)"/><path class="d" d="M1732.56-274l-13.93,7a4.94,4.94,0,0,1-6.64-2.19L1690.93-311a4.94,4.94,0,0,1,2.19-6.64l13.93-7a4.94,4.94,0,0,1,6.64,2.19l21.06,41.82A4.94,4.94,0,0,1,1732.56-274Z" transform="translate(965.53 517)"/><path class="o" d="M1728.37-282.29l-13.93,7a4.94,4.94,0,0,1-6.64-2.19l4.19,8.32a4.94,4.94,0,0,0,6.64,2.19l13.93-7a4.94,4.94,0,0,0,2.19-6.64l-4.19-8.32A4.94,4.94,0,0,1,1728.37-282.29Z" transform="translate(965.53 517)"/><path class="p" d="M1753.68-347.71l-1.43.72c.27.72.62,1.68,1,2.81a45.5,45.5,0,0,1-22.46,55.73l3.89,7.72a1.58,1.58,0,0,0,2.12.7l38.28-19.27a5.9,5.9,0,0,0,3-7.1c-3.45-10.6-11.5-35.18-12.63-37.44A8.73,8.73,0,0,0,1753.68-347.71Z" transform="translate(965.53 517)"/><path class="n" d="M1601.86-449.34a3.93,3.93,0,0,0-1.43-5.38l-4.82-2.8a22.89,22.89,0,0,0,5.69-6.4c.06-.1.29-.44.33-.52l.09-.16c1.82-3.37,1.39-5,.37-6.21a2.79,2.79,0,0,0-3.82,1l-.14.24a8.66,8.66,0,0,1-2.65,1.85l-14.07,3.83-.26.1-6.88,5.65-3.79,12.75a.71.71,0,0,0,.26,1l16.7,9.68a2.66,2.66,0,0,0,3.4-.63C1594-439.26,1601.29-448.35,1601.86-449.34Z" transform="translate(965.53 517)"/><path class="d" d="M1567.43-444.5l-6.08-3.52a2.23,2.23,0,0,1-.81-3l10.57-18.24a2.23,2.23,0,0,1,3-.81l6.08,3.52a2.23,2.23,0,0,1,.81,3l-10.57,18.24A2.23,2.23,0,0,1,1567.43-444.5Z" transform="translate(965.53 517)"/><path class="o" d="M1569.54-448.13l-6.08-3.52a2.23,2.23,0,0,1-.81-3l-2.1,3.63a2.23,2.23,0,0,0,.81,3l6.08,3.52a2.23,2.23,0,0,0,3-.81l2.1-3.63A2.23,2.23,0,0,1,1569.54-448.13Z" transform="translate(965.53 517)"/><path class="p" d="M1600.43-454.71l-.62-.36L1599-454a20.49,20.49,0,0,1-26.54,5.27l-2,3.37a.71.71,0,0,0,.26,1l16.7,9.68a2.66,2.66,0,0,0,3.4-.63c3.14-3.91,10.43-13,11-14A3.93,3.93,0,0,0,1600.43-454.71Z" transform="translate(965.53 517)"/><rect class="e" x="2316.44" y="437.57" width="240.79" height="148.18" transform="translate(913.58 951.78) rotate(-10.09)"/><rect class="g" x="2306.7" y="438.43" width="240.79" height="37.05" transform="translate(923.01 949.23) rotate(-10.09)"/><path class="d" d="M2536.37,399.88l-231.53,41.2a21.33,21.33,0,0,0-17.27,24.69l29.53,166a4.63,4.63,0,0,0,5.37,3.75l264.42-47a4.63,4.63,0,0,0,3.75-5.37l-29.53-166A21.33,21.33,0,0,0,2536.37,399.88ZM2330.47,601.13l-24.33-136.77a4.63,4.63,0,0,1,3.75-5.37l228-40.56a4.63,4.63,0,0,1,5.37,3.75L2567.54,559a4.63,4.63,0,0,1-3.75,5.37l-228,40.56A4.63,4.63,0,0,1,2330.47,601.13Z" transform="translate(965.53 517)"/><path class="g" d="M2594.39,577.69,2311.73,628a4.63,4.63,0,0,0-3.75,5.37h0a18.56,18.56,0,0,0,21.5,15l255.27-45.42a18.56,18.56,0,0,0,15-21.5h0A4.63,4.63,0,0,0,2594.39,577.69Z" transform="translate(965.53 517)"/><path class="d" d="M2364.08,472.86l-31.91,5.68a4.63,4.63,0,0,1-1.62-9.12l31.91-5.68a4.63,4.63,0,0,1,1.62,9.12Z" transform="translate(965.53 517)"/><path class="e" d="M2446.15,458.26l-4.56.81A4.63,4.63,0,1,1,2440,450l4.56-.81a4.63,4.63,0,0,1,1.62,9.12Z" transform="translate(965.53 517)"/><path class="e" d="M2468.94,454.21l-4.56.81a4.63,4.63,0,1,1-1.62-9.12l4.56-.81a4.63,4.63,0,0,1,1.62,9.12Z" transform="translate(965.53 517)"/><path class="e" d="M2491.74,450.15l-4.56.81a4.63,4.63,0,0,1-1.62-9.12l4.56-.81a4.63,4.63,0,1,1,1.62,9.12Z" transform="translate(965.53 517)"/><path class="e" d="M2514.53,446.1l-4.56.81a4.63,4.63,0,1,1-1.62-9.12l4.56-.81a4.63,4.63,0,1,1,1.62,9.12Z" transform="translate(965.53 517)"/><path class="j" d="M2429.14,574.17,2351.64,588a4.63,4.63,0,0,1-5.37-3.75l-13-72.94a4.63,4.63,0,0,1,3.75-5.37l77.5-13.79a4.63,4.63,0,0,1,5.37,3.75l13,72.94A4.63,4.63,0,0,1,2429.14,574.17Z" transform="translate(965.53 517)"/><path class="g" d="M2525.58,481.76,2439,497.17a4.63,4.63,0,1,1-1.62-9.12L2524,472.64a4.63,4.63,0,0,1,1.62,9.12Z" transform="translate(965.53 517)"/><path class="j" d="M2481.92,527.15l-36.47,6.49a4.63,4.63,0,0,1-1.62-9.12L2480.3,518a4.63,4.63,0,0,1,1.62,9.12Z" transform="translate(965.53 517)"/><path class="j" d="M2485.17,545.39l-36.47,6.49a4.63,4.63,0,1,1-1.62-9.12l36.47-6.49a4.63,4.63,0,1,1,1.62,9.12Z" transform="translate(965.53 517)"/><path class="j" d="M2488.41,563.63l-36.47,6.49a4.63,4.63,0,1,1-1.62-9.12l36.47-6.49a4.63,4.63,0,1,1,1.62,9.12Z" transform="translate(965.53 517)"/><path class="j" d="M2536.63,517.42l-36.47,6.49a4.63,4.63,0,1,1-1.62-9.12L2535,508.3a4.63,4.63,0,1,1,1.62,9.12Z" transform="translate(965.53 517)"/><path class="j" d="M2539.87,535.65l-36.47,6.49a4.63,4.63,0,1,1-1.62-9.12l36.47-6.49a4.63,4.63,0,1,1,1.62,9.12Z" transform="translate(965.53 517)"/><path class="j" d="M2543.12,553.89l-36.47,6.49a4.63,4.63,0,1,1-1.62-9.12l36.47-6.49a4.63,4.63,0,1,1,1.62,9.12Z" transform="translate(965.53 517)"/><path class="g" d="M2501.47,504.86l-59.27,10.55a4.63,4.63,0,1,1-1.62-9.12l59.27-10.55a4.63,4.63,0,1,1,1.62,9.12Z" transform="translate(965.53 517)"/><path class="j" d="M2436.44,615.2l36.47-6.49a9.26,9.26,0,0,0,7.5-10.74l-54.71,9.73A9.26,9.26,0,0,0,2436.44,615.2Z" transform="translate(965.53 517)"/><path class="e" d="M1303.82-277.82a16.12,16.12,0,0,1,4.88-6.06,22.09,22.09,0,0,1,6.7-3.59,20.41,20.41,0,0,1,7.65-1,14.08,14.08,0,0,1,7.46,2.55l0,.4a31.49,31.49,0,0,0-3.51-.06c-.58,0-1.17,0-1.75.08l-1.74.2a36.75,36.75,0,0,0-6.81,1.65,48.28,48.28,0,0,0-6.51,2.65c-1,.52-2.09,1.08-3.1,1.67s-2,1.19-3,1.85Z" transform="translate(965.53 517)"/><path class="g" d="M2186.73-53.9a2.85,2.85,0,0,0-2.23-3.34l-76.1-15.17a2.85,2.85,0,0,0-3.34,2.23l-10.56,53a2.85,2.85,0,0,0,2.23,3.34l23,4.58a6.41,6.41,0,0,1,4,3.12l6.56,13.76a2,2,0,0,0,3.34.67L2145-1.94a6.41,6.41,0,0,1,4.9-1.35l23,4.58a2.85,2.85,0,0,0,3.34-2.23l10.56-53Z" transform="translate(965.53 517)"/><path class="e" d="M2170.63-39.38l-47.79-9.52a4.26,4.26,0,0,1-3.35-5,4.26,4.26,0,0,1,5-3.35l47.79,9.52a4.26,4.26,0,0,1,3.35,5A4.26,4.26,0,0,1,2170.63-39.38Z" transform="translate(965.53 517)"/><path class="e" d="M2168-26.41l-47.79-9.52a4.26,4.26,0,0,1-3.35-5,4.26,4.26,0,0,1,5-3.35l47.79,9.52a4.26,4.26,0,0,1,3.35,5A4.26,4.26,0,0,1,2168-26.41Z" transform="translate(965.53 517)"/><path class="e" d="M2141.66-18.19l-24-4.78a4.26,4.26,0,0,1-3.35-5,4.26,4.26,0,0,1,5-3.35l24,4.78a4.26,4.26,0,0,1,3.35,5A4.26,4.26,0,0,1,2141.66-18.19Z" transform="translate(965.53 517)"/><path class="d" d="M2104.3-15.27l10.56-53a2.85,2.85,0,0,1,3.34-2.23l-11.07-2.21a2.85,2.85,0,0,0-3.34,2.23l-10.56,53a2.85,2.85,0,0,0,2.23,3.35l11.07,2.21A2.85,2.85,0,0,1,2104.3-15.27Z" transform="translate(965.53 517)"/><path class="e" d="M1266.07-255.57a2.89,2.89,0,0,1,.81-1.91,2.84,2.84,0,0,1,1.61-.89,3,3,0,0,1,2,.3,2.1,2.1,0,0,1,1.19,1.89l-.12.16a3.45,3.45,0,0,0-1.3-.48,4.21,4.21,0,0,0-1.4.09,6.79,6.79,0,0,0-1.37.39c-.44.18-.89.38-1.31.6Z" transform="translate(965.53 517)"/><path class="g" d="M2523.54,106.45a2.83,2.83,0,0,1-1.7-1.37l-15.06-27.65A14.39,14.39,0,0,1,2512.41,58a14.09,14.09,0,0,1,19.25,5.59l2.87,5.27,5.25-2.92A14.09,14.09,0,0,1,2559,71.56,14.38,14.38,0,0,1,2553.4,91l-27.69,15.25A2.82,2.82,0,0,1,2523.54,106.45Z" transform="translate(965.53 517)"/><path class="q" d="M2518.81,76.06a14.36,14.36,0,0,1,5-19c-.22-.08-.43-.16-.66-.23A14,14,0,0,0,2512.41,58a14.39,14.39,0,0,0-5.64,19.41l15.06,27.65a2.84,2.84,0,0,0,3.87,1.13l7.33-4Z" transform="translate(965.53 517)"/></svg>
