<svg xmlns="http://www.w3.org/2000/svg" xmlns:xlink="http://www.w3.org/1999/xlink" fill="#fff" x="0px" y="0px" width="100%" height="100%" viewBox="0 0 302.86 62.53">
    <defs>
      <style>
        .part1{isolation: isolate;}
        .part2{
          fill: transparent;
          stroke-dashoffset: 1000;
          stroke-dasharray: 1000;
          stroke-width: 2px;
          stroke: #62e6ac;
          animation: logoPay 2s ease-in-out forwards;
        }
        .part3{
          fill: transparent;
          stroke-dashoffset: 1000;
          stroke-dasharray: 1000;
          stroke-width: 2px;
          stroke: #50426b;
          animation: logoPubli 2s ease-in-out forwards;
        }
        .part4{opacity: 0.3; mix-blend-mode:darken;}

        @keyframes logoPay{
          0%{
            fill:#fff;
            stroke-dashoffset: 1000;
          }
          70%{

            stroke-dashoffset: 0;
          }
          100%{
            fill:#62e6ac;
            stroke-dashoffset: 1000;
          }
        }

        @keyframes logoPubli{
          0%{
            fill:#fff;
            stroke-dashoffset: 1000;
          }
          70%{
            stroke-dashoffset: 0;
          }
          100%{
            fill:#50426b;
            stroke-dashoffset: 1000;
          }
        }
      </style>
      <linearGradient id="a" x1="57.42" y1="-39.03" x2="251.22" y2="123.59" gradientUnits="userSpaceOnUse">
        <stop offset="0" stop-color="#fff"/>
        <stop offset="0.15" stop-color="#d3d3d3"/>
        <stop offset="0.46" stop-color="#7a7a7a"/>
        <stop offset="0.71" stop-color="#383838"/>
        <stop offset="0.9" stop-color="#0f0f0f"/>
        <stop offset="0.99"/>
      </linearGradient>
    </defs>
    <g class="part1"><path class="part2" d="M16.15,72.43H3.71V25H14.84l.53,3.62a13.68,13.68,0,0,1,11.06-4.21C36.23,25,41.7,31.09,41.7,41.76,41.7,52,35.18,59.2,25.44,59.2c-4.34,0-7.44-1.32-9.28-3.55ZM29.32,41.76c0-4.67-2.9-7.37-6.71-7.37a6.75,6.75,0,0,0-6.71,7c0,4.08,2.37,7.77,6.71,7.77C26.42,49.13,29.32,46.43,29.32,41.76Z" transform="translate(-3.71 -10.09)"/><path class="part2" d="M72.17,25H83.89V58.48H72.37l-.59-3.62a13.62,13.62,0,0,1-11,4.21c-9.87-.53-15.34-7.64-15.34-17.31,0-9.94,6.45-17.51,16.26-17.51,4.81,0,8,1.65,9.81,4.34ZM57.82,41.76c0,4.67,3,7.31,6.71,7.31,4.21,0,6.91-3.36,6.91-7.31,0-4.54-2.5-7.44-6.91-7.44C60.78,34.32,57.82,37.08,57.82,41.76Z" transform="translate(-3.71 -10.09)"/><path class="part2" d="M127.6,25,106.86,72.63h-13L100.61,57,87.31,25h13.23l2.83,8,3.69,11.58,4-11.65,3.16-8Z" transform="translate(-3.71 -10.09)"/><path class="part3" d="M156.76,72.43H144.32V25h11.12l.53,3.62A13.67,13.67,0,0,1,167,24.38c9.81.59,15.27,6.71,15.27,17.38C182.3,52,175.78,59.2,166,59.2c-4.34,0-7.44-1.32-9.28-3.55Zm13.17-30.67c0-4.67-2.9-7.37-6.71-7.37a6.75,6.75,0,0,0-6.71,7c0,4.08,2.37,7.77,6.71,7.77C167,49.13,169.92,46.43,169.92,41.76Z" transform="translate(-3.71 -10.09)"/><path class="part3" d="M199.94,25v18.5c0,4.15,2.3,5.6,4.67,5.6,3,0,5.79-1.84,5.79-6.25V25h12.31V58.48H211.66l-.53-3.69a13.55,13.55,0,0,1-10.6,4.48c-7,0-13.1-3.75-13.1-15.73V25Z" transform="translate(-3.71 -10.09)"/><path class="part3" d="M242.53,27.8c1.84-2.24,4.94-3.55,9.28-3.55,9.74,0,16.26,7.24,16.26,17.51,0,10.6-5.46,16.72-15.27,17.31a13.68,13.68,0,0,1-11.06-4.21l-.53,3.62H230.09V11h12.44Zm-.26,14.28a6.75,6.75,0,0,0,6.71,7c3.82,0,6.71-2.63,6.71-7.31s-2.9-7.44-6.71-7.44C244.63,34.32,242.26,38,242.26,42.09Z" transform="translate(-3.71 -10.09)"/><path class="part3" d="M286,10.95V58.48H273.66V10.95Z" transform="translate(-3.71 -10.09)"/><path class="part3" d="M299.6,10.09c3.49,0,7,2.17,7,6.25s-3.49,6.25-7,6.25-7-2.17-7-6.25S296.11,10.09,299.6,10.09Zm-6.25,48.38v-33h12.51v33Z" transform="translate(-3.71 -10.09)"/><g class="part4"><path class="part5" d="M16.15,72.43H3.71V25H14.84l.53,3.62a13.68,13.68,0,0,1,11.06-4.21C36.23,25,41.7,31.09,41.7,41.76,41.7,52,35.18,59.2,25.44,59.2c-4.34,0-7.44-1.32-9.28-3.55ZM29.32,41.76c0-4.67-2.9-7.37-6.71-7.37a6.75,6.75,0,0,0-6.71,7c0,4.08,2.37,7.77,6.71,7.77C26.42,49.13,29.32,46.43,29.32,41.76Z" transform="translate(-3.71 -10.09)"/><path class="part5" d="M72.17,25H83.89V58.48H72.37l-.59-3.62a13.62,13.62,0,0,1-11,4.21c-9.87-.53-15.34-7.64-15.34-17.31,0-9.94,6.45-17.51,16.26-17.51,4.81,0,8,1.65,9.81,4.34ZM57.82,41.76c0,4.67,3,7.31,6.71,7.31,4.21,0,6.91-3.36,6.91-7.31,0-4.54-2.5-7.44-6.91-7.44C60.78,34.32,57.82,37.08,57.82,41.76Z" transform="translate(-3.71 -10.09)"/><path class="part5" d="M127.6,25,106.86,72.63h-13L100.61,57,87.31,25h13.23l2.83,8,3.69,11.58,4-11.65,3.16-8Z" transform="translate(-3.71 -10.09)"/><path class="part5" d="M156.76,72.43H144.32V25h11.12l.53,3.62A13.67,13.67,0,0,1,167,24.38c9.81.59,15.27,6.71,15.27,17.38C182.3,52,175.78,59.2,166,59.2c-4.34,0-7.44-1.32-9.28-3.55Zm13.17-30.67c0-4.67-2.9-7.37-6.71-7.37a6.75,6.75,0,0,0-6.71,7c0,4.08,2.37,7.77,6.71,7.77C167,49.13,169.92,46.43,169.92,41.76Z" transform="translate(-3.71 -10.09)"/><path class="part5" d="M199.94,25v18.5c0,4.15,2.3,5.6,4.67,5.6,3,0,5.79-1.84,5.79-6.25V25h12.31V58.48H211.66l-.53-3.69a13.55,13.55,0,0,1-10.6,4.48c-7,0-13.1-3.75-13.1-15.73V25Z" transform="translate(-3.71 -10.09)"/><path class="part5" d="M242.53,27.8c1.84-2.24,4.94-3.55,9.28-3.55,9.74,0,16.26,7.24,16.26,17.51,0,10.6-5.46,16.72-15.27,17.31a13.68,13.68,0,0,1-11.06-4.21l-.53,3.62H230.09V11h12.44Zm-.26,14.28a6.75,6.75,0,0,0,6.71,7c3.82,0,6.71-2.63,6.71-7.31s-2.9-7.44-6.71-7.44C244.63,34.32,242.26,38,242.26,42.09Z" transform="translate(-3.71 -10.09)"/><path class="part5" d="M286,10.95V58.48H273.66V10.95Z" transform="translate(-3.71 -10.09)"/><path class="part5" d="M299.6,10.09c3.49,0,7,2.17,7,6.25s-3.49,6.25-7,6.25-7-2.17-7-6.25S296.11,10.09,299.6,10.09Zm-6.25,48.38v-33h12.51v33Z" transform="translate(-3.71 -10.09)"/></g></g>
  </svg>
