<svg xmlns="http://www.w3.org/2000/svg" viewBox="0 0 3706.61 959.46">
  <defs>
    <style>.a{fill:#5441f8;}.b{fill:#fff;}</style>
  </defs>
  <path class="a" d="M-963-517c-.67.76-.44,2.64-2,2.13-1-.33-.16-1.4,0-2.13Z" transform="translate(965.53 566.83)"/><circle class="b" cx="2685.04" cy="100.79" r="2.67"/><circle class="b" cx="3301.45" cy="127.83" r="3.92"/><circle class="b" cx="2988.53" cy="432.83" r="2.08"/><circle class="b" cx="3649.53" cy="18.33" r="6.54"/><circle class="b" cx="2985.28" cy="266.08" r="2.67"/><circle class="b" cx="3531.53" cy="149.92" r="3.92"/><circle class="b" cx="1751.27" cy="-119.29" r="3.92" transform="translate(1429.4 1640.77) rotate(-38.93)"/><circle class="b" cx="1940.2" cy="124.03" r="2.08" transform="translate(1318.46 1813.52) rotate(-38.93)"/><circle class="b" cx="3210.45" cy="668.83" r="3.92"/><circle class="b" cx="3486.86" cy="351.83" r="2.67"/><circle class="b" cx="3213.53" cy="861.83" r="6.54"/><circle class="b" cx="3597.53" cy="890.83" r="6.54"/><circle class="b" cx="3704.53" cy="295.83" r="2.08"/><circle class="b" cx="2390.03" cy="86.83" r="3.92"/><circle class="b" cx="2054.86" cy="3.92" r="3.92"/><circle class="b" cx="2099.27" cy="388.71" r="3.92" transform="translate(1187.47 1972.25) rotate(-38.93)"/><circle class="b" cx="1697.2" cy="204.03" r="2.08" transform="translate(1214.23 1678.59) rotate(-38.93)"/><circle class="b" cx="1495.27" cy="51.71" r="3.92" transform="translate(1265.1 1517.88) rotate(-38.93)"/><circle class="b" cx="2653.53" cy="360.83" r="2.08"/><circle class="b" cx="2488.53" cy="250.83" r="2.08"/><circle class="b" cx="2880.53" cy="118.83" r="2.08"/><circle class="b" cx="2248.53" cy="74.83" r="2.08"/><circle class="b" cx="2169.53" cy="62.83" r="2.08"/><circle class="b" cx="2275.53" cy="155.83" r="2.08"/><circle class="b" cx="3646.53" cy="434.83" r="2.08"/><circle class="b" cx="3313.53" cy="459.75" r="2.08"/></svg>
